<svg xmlns="http://www.w3.org/2000/svg" width="243" height="243" viewBox="0 0 243 243" version="1.1"><path d="M 134.250 43.689 C 135.213 43.941, 136.787 43.941, 137.750 43.689 C 138.713 43.438, 137.925 43.232, 136 43.232 C 134.075 43.232, 133.287 43.438, 134.250 43.689 M 70 45.378 C 70 45.585, 70.787 46.373, 71.750 47.128 C 73.336 48.371, 73.371 48.336, 72.128 46.750 C 70.821 45.084, 70 44.555, 70 45.378 M 110.590 46.145 C 111.447 47.532, 107.600 47.960, 103.993 46.880 C 96.358 44.592, 88 51.822, 88 60.714 C 88 65.839, 89.069 68.262, 93.302 72.735 C 94.986 74.514, 96.169 76.163, 95.932 76.399 C 94.647 77.675, 86 67.450, 86 64.656 C 86 62.315, 84.216 62.598, 80.343 65.552 C 75.598 69.171, 73.670 73.377, 74.279 78.780 C 75.181 86.783, 81.655 92.310, 89.500 91.774 C 93.348 91.510, 93.521 91.348, 94.055 87.500 C 94.516 84.176, 96.483 79, 97.285 79 C 97.403 79, 97.500 82.564, 97.500 86.919 C 97.500 93.921, 97.780 95.137, 99.921 97.415 C 101.252 98.833, 102.040 100.293, 101.673 100.661 C 101.305 101.029, 99.221 99.455, 97.042 97.165 C 93.348 93.282, 92.715 93, 87.680 93 C 83.599 93, 81.398 92.402, 78.671 90.552 L 75.064 88.104 73.010 90.714 C 68.721 96.167, 69.215 102.970, 74.290 108.338 C 78.383 112.669, 85.502 114.422, 93.124 112.976 C 95.984 112.434, 98.518 112.185, 98.756 112.422 C 99.632 113.299, 91.333 114.989, 86.126 114.994 L 80.752 115 81.210 120.522 C 81.571 124.872, 82.277 126.680, 84.536 129.038 C 92.065 136.896, 105.104 133.585, 110.120 122.541 C 111.623 119.233, 111.960 118.937, 111.978 120.912 C 112.009 124.305, 107.676 131.300, 104.486 133.007 C 101.840 134.424, 101.815 134.536, 102.480 141.971 C 102.851 146.112, 103.370 150.420, 103.634 151.545 C 104.339 154.549, 107.582 156.152, 114.162 156.748 L 120 157.278 120 117.798 C 120 96.084, 120.293 71.548, 120.651 63.274 C 121.293 48.453, 121.270 48.221, 119.137 47.543 C 117.946 47.165, 117.160 46.551, 117.390 46.178 C 117.620 45.805, 116.095 45.500, 114 45.500 C 111.905 45.500, 110.370 45.790, 110.590 46.145 M 136.269 46.693 C 137.242 46.947, 138.592 46.930, 139.269 46.656 C 139.946 46.382, 139.150 46.175, 137.500 46.195 C 135.850 46.215, 135.296 46.439, 136.269 46.693 M 134.409 77.500 C 134.408 86.850, 134.558 90.810, 134.743 86.299 C 134.928 81.789, 134.929 74.139, 134.745 69.299 C 134.562 64.460, 134.410 68.150, 134.409 77.500 M 122.328 68.500 C 122.333 72.350, 122.513 73.802, 122.730 71.728 C 122.946 69.653, 122.943 66.503, 122.722 64.728 C 122.501 62.952, 122.324 64.650, 122.328 68.500 M 44.750 95.662 C 45.438 95.940, 46.563 95.940, 47.250 95.662 C 47.938 95.385, 47.375 95.158, 46 95.158 C 44.625 95.158, 44.063 95.385, 44.750 95.662 M 49.813 95.683 C 50.534 95.972, 51.397 95.936, 51.729 95.604 C 52.061 95.272, 51.471 95.036, 50.417 95.079 C 49.252 95.127, 49.015 95.364, 49.813 95.683 M 162.872 128.750 C 161.629 130.336, 161.664 130.371, 163.250 129.128 C 164.213 128.373, 165 127.585, 165 127.378 C 165 126.555, 164.179 127.084, 162.872 128.750 M 115.750 159.662 C 116.438 159.940, 117.563 159.940, 118.250 159.662 C 118.938 159.385, 118.375 159.158, 117 159.158 C 115.625 159.158, 115.063 159.385, 115.750 159.662 M 94.500 162 C 94.840 162.550, 95.316 163, 95.559 163 C 95.802 163, 96 162.550, 96 162 C 96 161.450, 95.523 161, 94.941 161 C 94.359 161, 94.160 161.450, 94.500 162 M 103.232 173 C 103.232 174.925, 103.438 175.713, 103.689 174.750 C 103.941 173.787, 103.941 172.213, 103.689 171.250 C 103.438 170.287, 103.232 171.075, 103.232 173 M 131.750 170.706 C 132.988 170.944, 135.012 170.944, 136.250 170.706 C 137.488 170.467, 136.475 170.272, 134 170.272 C 131.525 170.272, 130.512 170.467, 131.750 170.706 M 105.250 177.689 C 106.213 177.941, 107.787 177.941, 108.750 177.689 C 109.713 177.438, 108.925 177.232, 107 177.232 C 105.075 177.232, 104.287 177.438, 105.250 177.689 M 126.250 178.689 C 127.213 178.941, 128.787 178.941, 129.750 178.689 C 130.713 178.438, 129.925 178.232, 128 178.232 C 126.075 178.232, 125.287 178.438, 126.250 178.689 M 147.250 178.689 C 148.213 178.941, 149.787 178.941, 150.750 178.689 C 151.713 178.438, 150.925 178.232, 149 178.232 C 147.075 178.232, 146.287 178.438, 147.250 178.689 M 126.750 188.662 C 127.438 188.940, 128.563 188.940, 129.250 188.662 C 129.938 188.385, 129.375 188.158, 128 188.158 C 126.625 188.158, 126.063 188.385, 126.750 188.662 M 148.269 188.693 C 149.242 188.947, 150.592 188.930, 151.269 188.656 C 151.946 188.382, 151.150 188.175, 149.500 188.195 C 147.850 188.215, 147.296 188.439, 148.269 188.693" stroke="none" fill="#f63750" fill-rule="evenodd"/><path d="M 64.531 37.565 C 67.463 42.128, 69.229 44.229, 72.459 47 L 75.374 49.500 73.437 46.396 C 71.083 42.624, 67.135 38.028, 64.506 36 C 62.599 34.529, 62.600 34.559, 64.531 37.565 M 187 38.103 C 183.010 40.493, 177 45.979, 177 47.231 C 177 49.225, 187.040 42.042, 189.554 38.250 C 191.376 35.503, 191.345 35.501, 187 38.103 M 94.177 45.683 C 90.156 47.665, 86.169 53.238, 85.368 58 C 84.884 60.873, 84.037 61.858, 80.641 63.500 C 73.118 67.136, 70.099 75.248, 73.083 83.809 C 74.045 86.567, 73.848 87.332, 71.333 90.630 C 65.976 97.653, 68.600 107.994, 76.956 112.790 C 79.414 114.200, 79.577 114.713, 79.214 119.905 C 78.891 124.532, 79.228 126.090, 81.161 128.908 C 85.043 134.565, 88.268 136.360, 94.737 136.462 L 100.500 136.553 101.138 144.526 C 101.931 154.440, 102.356 155.466, 106.478 157.423 C 110.853 159.499, 120.320 159.524, 122.030 157.464 C 123.807 155.322, 122.820 49.693, 121.002 47.502 C 119.339 45.499, 113.627 44.586, 110.209 45.777 C 108.131 46.502, 106.715 46.406, 104.934 45.419 C 101.679 43.616, 98.199 43.701, 94.177 45.683 M 132.226 100.537 C 132.463 149.501, 132.701 157.201, 134 158.022 C 135.953 159.256, 145.161 159.269, 148.387 158.043 C 151.776 156.754, 153.893 152.319, 154.671 144.876 C 155.238 139.451, 155.906 137.960, 160.174 132.601 C 175.496 113.360, 178.192 108.737, 180.096 98.436 C 181.504 90.824, 180.503 83.119, 177.024 74.782 C 169.072 55.723, 153.941 44, 137.294 44 L 131.952 44 132.226 100.537 M 96.020 47.711 C 91.119 50.230, 88 55.288, 88 60.714 C 88 65.839, 89.069 68.262, 93.302 72.735 C 94.986 74.514, 96.169 76.163, 95.932 76.399 C 94.647 77.675, 86 67.450, 86 64.656 C 86 62.315, 84.216 62.598, 80.343 65.552 C 75.598 69.171, 73.670 73.377, 74.279 78.780 C 75.181 86.783, 81.655 92.310, 89.500 91.774 C 93.348 91.510, 93.521 91.348, 94.055 87.500 C 94.516 84.176, 96.483 79, 97.285 79 C 97.403 79, 97.500 82.564, 97.500 86.919 C 97.500 93.921, 97.780 95.137, 99.921 97.415 C 101.252 98.833, 102.040 100.293, 101.673 100.661 C 101.305 101.029, 99.221 99.455, 97.042 97.165 C 93.348 93.282, 92.715 93, 87.680 93 C 83.599 93, 81.398 92.402, 78.671 90.552 L 75.064 88.104 73.010 90.714 C 68.721 96.167, 69.215 102.970, 74.290 108.338 C 78.383 112.669, 85.502 114.422, 93.124 112.976 C 95.984 112.434, 98.518 112.185, 98.756 112.422 C 99.632 113.299, 91.333 114.989, 86.126 114.994 L 80.752 115 81.210 120.522 C 81.571 124.867, 82.278 126.681, 84.527 129.028 C 92.066 136.897, 105.100 133.593, 110.120 122.541 C 111.623 119.233, 111.960 118.937, 111.978 120.912 C 112.009 124.305, 107.676 131.300, 104.486 133.007 C 101.840 134.424, 101.815 134.536, 102.480 141.971 C 102.851 146.112, 103.370 150.420, 103.634 151.545 C 104.339 154.549, 107.582 156.152, 114.162 156.748 L 120 157.278 120 117.798 C 120 96.084, 120.292 71.579, 120.648 63.342 L 121.296 48.365 118.156 47.065 C 116.319 46.304, 113.871 46.055, 112.258 46.465 C 108.618 47.389, 106.138 47.424, 102.500 46.600 C 100.464 46.140, 98.382 46.496, 96.020 47.711 M 134.661 57.178 C 133.508 77.190, 133.868 155.800, 135.116 156.571 C 135.729 156.951, 138.720 157.239, 141.762 157.211 C 149.628 157.141, 151.653 154.879, 153.339 144.281 C 154.465 137.207, 155.142 135.551, 158.566 131.495 C 169.097 119.020, 171.277 116.064, 174.044 110.500 C 180.424 97.673, 180.275 86.057, 173.555 72.430 C 166.171 57.456, 154.680 48.483, 140.407 46.547 L 135.314 45.855 134.661 57.178 M 153.347 68.940 C 157.904 73.812, 161.171 79.635, 162.638 85.500 L 163.389 88.500 163.783 85.518 C 164.653 78.944, 159.937 69.978, 153.525 66.016 C 148.405 62.851, 148.359 63.607, 153.347 68.940 M 44 96.006 C 40.134 96.442, 39.852 96.616, 42 97.243 C 45.540 98.276, 55.773 98.176, 56.438 97.100 C 57.137 95.970, 49.946 95.337, 44 96.006 M 193 95.896 C 190.802 96.508, 190.722 96.677, 192.332 97.296 C 194.946 98.301, 206.778 98.169, 207.421 97.128 C 208.478 95.418, 197.945 94.518, 193 95.896 M 159.722 107.103 C 157.378 111.320, 157.240 111.942, 158.835 111.088 C 160.824 110.024, 163.448 104.806, 162.850 103.104 C 162.658 102.555, 161.250 104.354, 159.722 107.103 M 73.340 146.834 C 70.678 148.943, 67.825 151.491, 67 152.498 C 65.605 154.199, 65.648 154.249, 67.608 153.204 C 70.097 151.879, 79.800 143.097, 78.840 143.040 C 78.477 143.018, 76.002 144.725, 73.340 146.834 M 171 145.181 C 171 147.176, 176.505 154.446, 179.504 156.410 C 182.864 158.612, 182.645 157.175, 178.750 151.447 C 175.088 146.062, 171 142.756, 171 145.181 M 159.797 165.006 L 158.093 168 127.630 168 L 97.167 168 96.110 165.250 C 95.077 162.563, 95.058 162.557, 95.276 165 C 95.431 166.728, 96.497 167.963, 98.728 169 L 101.956 170.500 101.898 179 C 101.810 191.861, 101.955 194.381, 102.869 195.822 C 104.263 198.021, 110.854 199.027, 123.750 199.009 C 133.371 198.996, 136 199.282, 136 200.341 C 136 205.405, 124.477 207.542, 120.912 203.139 C 119.860 201.841, 119 201.261, 119 201.850 C 119 203.680, 122.990 206.748, 126.205 207.391 C 131.546 208.459, 136.860 206.362, 138.725 202.451 C 140.265 199.222, 140.680 199, 145.185 199 C 151.170 199, 154 196.592, 154 191.500 C 154 189.375, 154.491 187.994, 155.250 187.985 C 156.213 187.973, 156.223 187.793, 155.293 187.202 C 154.509 186.704, 154.093 183.562, 154.105 178.218 C 154.121 171.006, 154.341 170, 155.906 170 C 158.001 170, 160.481 167.427, 161.449 164.250 C 162.384 161.181, 161.828 161.436, 159.797 165.006 M 103.015 172.750 C 103.036 176.546, 104.015 177.747, 107.503 178.260 L 110.500 178.700 107.250 178.850 C 104.159 178.993, 104 179.193, 104 182.937 C 104 186.629, 104.202 186.898, 107.250 187.277 L 110.500 187.680 107.250 187.840 C 104.350 187.983, 104 188.319, 104 190.965 C 104 192.873, 104.690 194.299, 105.934 194.965 C 107.092 195.584, 116.315 196, 128.899 196 C 148.668 196, 149.992 195.884, 150.965 194.066 C 152.991 190.280, 152.250 188.158, 148.750 187.723 L 145.500 187.320 148.750 187.160 C 151.904 187.005, 152 186.869, 152 182.563 C 152 178.307, 151.868 178.110, 148.750 177.723 L 145.500 177.320 148.633 177.160 C 151.201 177.029, 151.862 176.505, 152.291 174.256 C 152.580 172.746, 152.606 171.171, 152.349 170.756 C 152.092 170.340, 140.884 170, 127.441 170 L 103 170 103.015 172.750 M 125.750 177.706 C 126.987 177.944, 129.012 177.944, 130.250 177.706 C 131.488 177.467, 130.475 177.272, 128 177.272 C 125.525 177.272, 124.513 177.467, 125.750 177.706 M 125.264 187.718 C 126.784 187.947, 129.034 187.941, 130.264 187.704 C 131.494 187.467, 130.250 187.279, 127.500 187.286 C 124.750 187.294, 123.744 187.488, 125.264 187.718" stroke="none" fill="#1f120b" fill-rule="evenodd"/><path d="M 99.597 1.607 C 49.887 10.584, 10.243 50.523, 1.548 100.385 C -0.434 111.753, -0.434 131.247, 1.548 142.615 C 10.312 192.869, 50.131 232.688, 100.385 241.452 C 111.753 243.434, 131.247 243.434, 142.615 241.452 C 172.604 236.222, 200.202 219.397, 218.572 195.146 C 229.821 180.295, 239.806 157.011, 241.648 141.334 C 241.997 138.370, 242.669 135.705, 243.141 135.413 C 243.613 135.121, 244 128.357, 244 120.382 C 244 112.407, 243.611 106.123, 243.135 106.417 C 242.659 106.711, 241.987 104.549, 241.642 101.613 C 240.706 93.648, 236.373 79.590, 231.933 70.117 C 215.005 33.992, 181.598 8.346, 142.615 1.548 C 131.630 -0.368, 110.369 -0.339, 99.597 1.607 M 64.122 37.273 C 66.069 40.987, 71.073 46.969, 73.173 48.093 C 75.005 49.073, 75.060 48.980, 73.920 46.826 C 72.046 43.285, 66.091 36.249, 64.429 35.611 C 63.200 35.139, 63.148 35.416, 64.122 37.273 M 186.973 37.649 C 183.561 39.925, 177 46.227, 177 47.229 C 177 49.428, 188.151 41.456, 190.058 37.892 C 191.304 35.563, 190.228 35.478, 186.973 37.649 M 132.750 43.583 C 132.338 43.996, 132 69.426, 132 100.095 C 132 149.455, 132.180 156.038, 133.571 157.429 C 134.678 158.535, 137.068 159, 141.648 159 C 147.422 159, 148.465 158.689, 150.921 156.233 C 153.164 153.990, 153.911 151.965, 154.867 145.537 C 155.678 140.085, 156.742 136.767, 158.273 134.915 C 175.728 113.812, 179.717 106.770, 180.670 95.385 C 182.361 75.179, 166.753 50.943, 148.515 45.454 C 142.814 43.739, 133.678 42.654, 132.750 43.583 M 93.241 45.936 C 89.302 48.408, 86.184 53.232, 85.386 58.086 C 84.911 60.979, 84.178 61.896, 81.590 62.831 C 75.955 64.869, 72.730 69.216, 72.211 75.473 C 71.949 78.629, 72.275 82.250, 72.973 83.935 C 74.069 86.582, 73.925 87.232, 71.549 90.347 C 70.094 92.254, 68.647 95.402, 68.332 97.343 C 67.516 102.369, 71.121 109.434, 75.906 112.188 C 79.567 114.295, 79.601 114.374, 79.241 119.908 C 78.771 127.148, 81.121 131.599, 87.105 134.804 C 90.369 136.551, 92.579 137.041, 95.693 136.708 C 100.659 136.176, 101 136.709, 101 145.017 C 101 155.258, 102.619 157.258, 112.363 159.059 C 116.005 159.733, 118.612 159.718, 120.466 159.013 L 123.199 157.974 122.849 103.398 L 122.500 48.823 120.087 46.869 C 118.218 45.356, 116.298 44.950, 111.587 45.073 C 108.239 45.160, 103.475 44.929, 101 44.561 C 97.406 44.025, 95.844 44.302, 93.241 45.936 M 134.666 82.142 C 133.785 129.149, 133.850 154.215, 134.856 155.802 C 135.428 156.703, 137.622 157.011, 141.989 156.802 C 149.873 156.424, 151.665 154.434, 153.074 144.482 C 154.160 136.815, 155.016 135.182, 162.499 126.500 C 176.697 110.029, 181.057 97.716, 177.583 83.901 C 172.470 63.564, 157.352 48.376, 141.048 47.197 L 135.328 46.783 134.666 82.142 M 152.714 68.250 C 157.393 73.065, 162 81.171, 162 84.590 C 162 85.851, 162.450 87.160, 163 87.500 C 163.609 87.876, 164 86.396, 164 83.716 C 164 77.894, 160.462 71.352, 155.096 67.250 C 149.106 62.671, 147.817 63.212, 152.714 68.250 M 42.235 95.708 C 40.990 95.947, 40.229 96.561, 40.544 97.071 C 41.270 98.245, 56.696 98.301, 57.418 97.133 C 58.353 95.621, 47.828 94.633, 42.235 95.708 M 192 95.896 C 189.802 96.508, 189.722 96.677, 191.332 97.296 C 193.968 98.309, 208 98.165, 208 97.125 C 208 95.248, 197.282 94.424, 192 95.896 M 159.778 106.510 C 157.061 111.991, 157.563 114.123, 160.512 109.623 C 162.352 106.814, 164.155 100.996, 163.180 101.010 C 162.806 101.016, 161.275 103.491, 159.778 106.510 M 0.400 121.500 C 0.401 129.750, 0.556 132.992, 0.744 128.704 C 0.932 124.417, 0.931 117.667, 0.742 113.704 C 0.552 109.742, 0.399 113.250, 0.400 121.500 M 74.400 145.864 C 72.255 147.440, 69.375 149.985, 68 151.521 L 65.500 154.313 68.768 152.430 C 71.856 150.651, 80.038 143, 78.853 143 C 78.549 143, 76.545 144.289, 74.400 145.864 M 172.185 148.115 C 174.864 152.882, 181.214 158.858, 181.784 157.148 C 182.634 154.598, 173.828 144, 170.859 144 C 170.316 144, 170.913 145.852, 172.185 148.115 M 94.769 163.750 C 95.393 167.237, 97.774 170, 100.155 170 C 101.634 170, 102 170.776, 102 173.917 C 102 176.114, 101.451 178.055, 100.750 178.338 C 99.750 178.741, 99.750 178.858, 100.750 178.921 C 101.524 178.970, 102 180.492, 102 182.917 C 102 185.114, 101.451 187.055, 100.750 187.338 C 99.750 187.741, 99.750 187.858, 100.750 187.921 C 101.531 187.970, 102 189.519, 102 192.051 C 102 195.728, 102.320 196.236, 105.468 197.551 C 107.375 198.348, 110.892 199, 113.283 199 C 117.253 199, 117.772 199.298, 119.274 202.448 C 122.712 209.657, 135.364 209.545, 138.921 202.273 C 140.351 199.351, 140.928 199.043, 145.027 199.023 C 151.312 198.991, 154 196.895, 154 192.027 C 154 189.874, 154.553 187.944, 155.250 187.662 C 156.250 187.259, 156.250 187.142, 155.250 187.079 C 154.451 187.028, 154 185.408, 154 182.583 C 154 179.986, 154.515 177.959, 155.250 177.662 C 156.250 177.259, 156.250 177.142, 155.250 177.079 C 154.503 177.032, 154 175.591, 154 173.500 C 154 170.711, 154.391 170, 155.927 170 C 158.113 170, 162.016 165.554, 161.970 163.115 C 161.946 161.851, 161.702 161.934, 160.845 163.500 C 158.416 167.941, 157.977 168, 127.509 168 C 96.702 168, 96 167.895, 96 163.300 C 96 162.035, 95.612 161, 95.139 161 C 94.665 161, 94.499 162.238, 94.769 163.750 M 104 173.525 C 104 176.719, 104.242 177, 107 177 C 108.650 177, 110 177.450, 110 178 C 110 178.550, 108.650 179, 107 179 C 104.175 179, 104 179.229, 104 182.937 C 104 186.629, 104.202 186.898, 107.250 187.277 L 110.500 187.680 107.250 187.840 C 104.335 187.984, 104 188.312, 104 191.025 C 104 193.351, 104.592 194.275, 106.565 195.025 C 107.976 195.561, 118.310 196, 129.530 196 C 148.675 196, 149.993 195.881, 150.965 194.066 C 152.713 190.799, 152.213 189, 149.559 189 C 148.216 189, 146.840 188.550, 146.500 188 C 146.139 187.417, 147.156 187, 148.941 187 C 151.843 187, 152 186.795, 152 183 C 152 179.222, 151.833 179, 149 179 C 147.350 179, 146 178.550, 146 178 C 146 177.450, 147.350 177, 149 177 C 151.736 177, 152 176.705, 152 173.651 L 152 170.301 128 170.175 L 104 170.049 104 173.525 M 124 178 C 125.968 179.272, 130.714 179.272, 131.500 178 C 131.880 177.386, 130.264 177.006, 127.309 177.015 C 123.835 177.026, 122.917 177.300, 124 178 M 125.250 188.162 C 127.091 188.835, 128.909 188.835, 130.750 188.162 C 133.171 187.278, 132.841 187.158, 128 187.158 C 123.159 187.158, 122.829 187.278, 125.250 188.162 M 119 199.811 C 119 200.258, 119.918 201.608, 121.039 202.811 C 124.989 207.051, 136 205.236, 136 200.345 C 136 199.324, 133.954 199, 127.500 199 C 122.825 199, 119 199.365, 119 199.811" stroke="none" fill="#fabb5b" fill-rule="evenodd"/></svg>